<svg width="20" height="20" fill="none" xmlns="http://www.w3.org/2000/svg"><path d="m18.444 20-7-7a6.774 6.774 0 0 1-4.222 1.444c-2.018 0-3.726-.698-5.124-2.096C.699 10.949 0 9.24 0 7.222c0-2.018.7-3.727 2.098-5.125C3.496.699 5.204 0 7.222 0c2.019 0 3.727.699 5.126 2.097 1.398 1.398 2.096 3.107 2.096 5.125A6.774 6.774 0 0 1 13 11.444l7 7L18.444 20ZM7.222 12.222c1.39 0 2.57-.486 3.542-1.458s1.458-2.153 1.458-3.542c0-1.389-.486-2.57-1.458-3.542S8.611 2.222 7.222 2.222c-1.389 0-2.57.486-3.542 1.458-.972.973-1.458 2.153-1.458 3.542 0 1.39.486 2.57 1.458 3.542.973.972 2.153 1.458 3.542 1.458Z" fill="#fff"/></svg>